<svg width="40" height="40" viewBox="0 0 40 40" fill="none" xmlns="http://www.w3.org/2000/svg">
<g clip-path="url(#clip0_20_34575)">
<path d="M14.1667 22.5H13.3334C12.8914 22.5 12.4675 22.3244 12.1549 22.0118C11.8423 21.6993 11.6667 21.2754 11.6667 20.8333V13.3333C11.6667 12.8913 11.8423 12.4674 12.1549 12.1548C12.4675 11.8423 12.8914 11.6667 13.3334 11.6667H20.8334C21.2754 11.6667 21.6994 11.8423 22.0119 12.1548C22.3245 12.4674 22.5001 12.8913 22.5001 13.3333V14.1667M19.1667 17.5H26.6667C27.5872 17.5 28.3334 18.2462 28.3334 19.1667V26.6667C28.3334 27.5871 27.5872 28.3333 26.6667 28.3333H19.1667C18.2463 28.3333 17.5001 27.5871 17.5001 26.6667V19.1667C17.5001 18.2462 18.2463 17.5 19.1667 17.5Z" stroke="#667085" stroke-width="1.67" stroke-linecap="round" stroke-linejoin="round"/>
</g>
<defs>
<clipPath id="clip0_20_34575">
<rect width="20" height="20" fill="white" transform="translate(10 10)"/>
</clipPath>
</defs>
</svg>
