<svg width="56" height="56" viewBox="0 0 56 56" fill="none" xmlns="http://www.w3.org/2000/svg">
<rect x="4" y="4" width="48" height="48" rx="24" fill="#DBE8FF"/>
<rect x="4" y="4" width="48" height="48" rx="24" stroke="#F0F5FF" stroke-width="8"/>
<path d="M26 29C26.4294 29.5741 26.9773 30.0492 27.6065 30.3929C28.2357 30.7367 28.9315 30.9411 29.6466 30.9923C30.3617 31.0435 31.0795 30.9404 31.7513 30.6898C32.4231 30.4392 33.0331 30.0471 33.54 29.54L36.54 26.54C37.4507 25.597 37.9547 24.334 37.9433 23.023C37.9319 21.712 37.4061 20.4579 36.479 19.5309C35.552 18.6039 34.2979 18.078 32.987 18.0666C31.676 18.0552 30.413 18.5592 29.47 19.47L27.75 21.18M30 27C29.5705 26.4259 29.0226 25.9508 28.3934 25.6071C27.7642 25.2633 27.0684 25.0589 26.3533 25.0077C25.6382 24.9564 24.9204 25.0596 24.2486 25.3102C23.5769 25.5608 22.9668 25.9529 22.46 26.46L19.46 29.46C18.5492 30.403 18.0452 31.666 18.0566 32.977C18.068 34.288 18.5938 35.542 19.5209 36.4691C20.4479 37.3961 21.702 37.922 23.0129 37.9334C24.3239 37.9448 25.5869 37.4408 26.53 36.53L28.24 34.82" stroke="#3976E8" stroke-width="1.5" stroke-linecap="round" stroke-linejoin="round"/>
</svg>
